<?xml version="1.0" encoding="utf-8"?>
<!-- Generator: Adobe Illustrator 25.0.0, SVG Export Plug-In . SVG Version: 6.00 Build 0)  -->
<svg version="1.1" id="Layer_1" xmlns="http://www.w3.org/2000/svg" xmlns:xlink="http://www.w3.org/1999/xlink" x="0px" y="0px"
	 width="800px" height="800px" viewBox="0 0 800 800" style="enable-background:new 0 0 800 800;" xml:space="preserve">
<style type="text/css">
	.st0{fill:#E22927;}
	.st1{fill-rule:evenodd;clip-rule:evenodd;fill:#FEFEFE;}
	.st2{fill-rule:evenodd;clip-rule:evenodd;fill:#E22927;}
</style>
<rect class="st0" width="800" height="800"/>
<g>
	<path class="st1" d="M427,142.4V134h0.3c0.9,1.9,3.2,5,4.8,6.8l32.3,34.3h16.9v-59.8H466V156h-0.3c-1.1-2.4-2.8-4.4-4.7-6.7
		l-31.1-34h-18.2v59.8H427V142.4z M561.3,163.2h-44v-9.4c-1.2-1.1-3.3-2.6-4.6-3.2v-0.2h46.6v-11.1h-42v-8.5
		c-1.2-1.1-3.3-2.6-4.6-3.2v-0.2h48v-12h-60.4v59.8h61V163.2z M397.6,144.2c0-18.7-14.1-28.9-36.1-28.9h-38v59.8h37.7
		C382.6,175.2,397.6,162.9,397.6,144.2z M340.5,163.6v-33.3c-1.2-1.1-3.3-2.6-4.6-3.2v-0.2h23c12.2,0,20.6,6,20.6,17.7
		c0,12-7.8,19-20.6,19H340.5z"/>
	<path class="st1" d="M199.7,165.2c-12.2,0-21.4-4.8-26.4-11.8l-12.1,8.5c6.2,9.4,20,15.3,37.7,15.3c21.7,0,34-7.4,34-20.7
		c0-11-6.8-15.9-23.3-17.6l-16.4-1.7c-7.7-0.8-10.1-2.2-10.1-5.8c0-4.1,5-6.3,14.2-6.3c11.5,0,20.1,3.5,24.4,9.5l10.8-9
		c-7.5-8.4-19.3-12.4-34.4-12.4c-20.5,0-32.1,7.1-32.1,19c0,11,7.2,16.4,21.7,18l18.4,2c7.1,0.8,9.6,2.3,9.6,6
		C215.7,162.9,210.6,165.2,199.7,165.2"/>
	<path class="st1" d="M283.4,175.2v-20.4l30.1-39.4h-18.4l-17.9,24.3c-1.4,1.8-1.7,2.5-1.9,3.4h-0.2c-0.3-0.8-0.7-1.6-2-3.4
		l-17.3-24.3h-19.4l29.9,39.4v20.4H283.4L283.4,175.2z"/>
	<path class="st1" d="M616.6,175.2v-20.4l30.1-39.4h-18.4l-17.9,24.3c-1.3,1.8-1.7,2.5-1.9,3.4h-0.2c-0.3-0.8-0.7-1.6-2-3.4
		L589,115.3h-19.4l29.9,39.4v20.4H616.6z"/>
	<path class="st1" d="M399.1,686.8L297,482.5l-1,0.9c-3.6,3.3-7.2,6.5-10.8,9.7c-8.7,7.6-17.6,15-26.7,22.1
		c-2.7,2.1-5.2,4.6-7.4,7.3c0,0-6.4,8-6.6,17.2c-2.6-0.4-5.1-0.9-7.6-1.6c-0.9-0.3-1.7-0.7-2.5-1.1l-0.1-0.1c-2-1.1-3.9-2.4-5.6-4
		c-1.7-1.6-3.1-3.5-4.3-5.5l-0.2-0.3l-0.1-0.2c-0.6-1.2-1.1-2.4-1.5-3.6l-0.1-0.3l0,0l-0.1-0.3c-1.5-5-1.7-10.7-0.7-17.4
		c1.3-8.3,7.4-18.7,14.4-30.8c9.5-16.3,20.2-34.8,23-53.5l0.7-4.5l-4.5-0.9c-4.5-1-8.4-4-11-8.5l0-0.1l-0.6-1.2
		c-3.9-7.9-3.8-18.5,0.1-29.4l-90.4-181.1l189,0.1l18.1,35.9c16.4-6.5,33-9.8,49.4-9.8c4.9,0,9.8,0.3,14.6,0.9l0.9,0.1l0,0
		c2.4,0.3,9.5,1.3,16,3.2l14.7-30.4l188.8,0L399.1,686.8L399.1,686.8z"/>
	<path class="st2" d="M529.9,341.9c-1.6-17-20.6-40.9-34.6-48.5c6.7-2,14.9-1.4,18-1.6c-26.2-29.4-59.7-30-81.1-26.7
		c-12.6,1.9-20.9,5.4-20.9,5.4v0c6.4-1.3,12.9-2.1,19.4-2.5c11.9-0.8,22.2,0.1,30.9,1.9c4.2,0.8,8.4,2,12.5,3.4
		c17.1,5.8,25.3,14.2,25.3,14.2s-11,0.3-18.4,4.7c15.9,8.5,33.9,22.6,40.3,41.3l-0.2-0.1c-1.8-0.5-12.2-4-27.1,0.1
		c8.2,9,29.6,27.4,29.2,66.1l0-0.1c0,0,9.8-34-15.4-61.8C507.9,337.8,517,336.2,529.9,341.9 M630.2,204.2l-168.5,0l-12.3,25.7
		l0.7,0.1c6.6,0.9,58.8,9.3,94.6,54.8c9.4,12,17.4,25.8,23.4,43.4L630.2,204.2z"/>
	<path class="st2" d="M464.7,535.3c34-67.9,31.4-104.9,23.3-130.1c-8-29.4-24.8-39.4-36.8-42.3c-0.5-0.1-2.3-0.5-4.6-0.6
		c-2.7-0.2-6.1,0-9.2,1.1c-1.4,0.5-2.7,1.2-4,2.1c-2.8,2.1-4.9,4.8-6.4,7c-0.6,0.8-1.3,1.6-1.9,2.4c-10.5,12.4-26.4,20.3-26.4,20.3
		c-14.4,7.9-29.6,7-39.3,5.1c-3.3-0.8-11.3-3.2-19.4-9.7c-1-0.8-2-1.7-2.9-2.7c-0.6-0.6-1.1-1.2-1.6-1.8c-0.3-0.3-0.5-0.6-0.8-0.9
		c-8.4-10.4-9.8-23.5-8.9-34.5l0,0c0-0.3,0.2-2.1,1.5-3.6c0.2-0.2,0.4-0.5,0.7-0.7c0,0,0.1-0.1,0.1-0.1l0.1-0.1
		c2.1-1.5,3.1-1.2,5.8-2.4l0,0c3.3-1.5,6.1-4.2,7.7-7.5c0.2-0.4,0.4-0.8,0.5-1.2c0.8-2,1.3-4.2,1.2-6.4v-0.1
		c-0.1-5.1-2.5-9.7-6.7-12c3.5-6.2,8.4-13.2,14.6-18.9c0.5-0.4,1-0.9,1.5-1.3l0.2-0.1l0.1-0.1l0.3-0.2c6.8-5.9,14.9-10.3,18.5-12.1
		c0.5-0.3,1.1-0.6,1.7-0.9h0c-0.5,0.1-1.3,0.1-1.8,0.2c-7.6,1-40.5,7-56.6,34.3l-0.5,0.8l0,0c0,0-0.1,0.1-0.1,0.1
		c-0.4,0.7-1,1.7-1.6,2.9c-0.7,1.4-1.6,3-2.5,4.6c-1.5,2.8-2.9,5.6-4.4,8.5v0c-1.2,2.4-4.6,7.8-4.6,7.8h0c-5.3,7.2-12,14-19.9,15.9
		c-1.4,0.3-2.7,0.5-4.2,0.5c-3,0-5.5-0.5-7.4-1.2c-0.2-0.1-0.4-0.2-0.7-0.3c-10-5.6-5.3-19.8-3.1-24.9l0-0.1l0-0.1
		c14.9-32.4,51.1-67.2,90.7-87c16.7-8.4,34.1-14.1,50.7-15.8c5.1-0.5,10.6-1.1,16.6-1.2h0h0.1c1.6,0,3.2,0,4.8,0.1l0.3,0
		c1,0,2,0.1,3,0.1c0.6,0,1.2,0,1.7,0.1c-15.9-4.1-45.6-6.1-80.4,10.2l0,0l-0.3-0.6l-16.8-33.7L168,204.2l83,166
		c-7.1,13.6-7.2,26.1-3.4,33.7l0.5,1.1c1.4,2.4,5.4,8,13,6.4c1-0.2,2-0.6,2.9-1c2.4-1.2,3.8-2.9,4.7-4.6c1-2,1.3-3.9,1.3-4.9
		c1.8,4.9,3.2,10.3,4.2,15.9c1.4,7.8,2,15.8,1.5,22.5c0,0,7.6-12.6,9.3-27.3l0-0.1c1.7-12.7,0.4-24.7,0-29.6
		c-0.1-0.8-0.1-1.7-0.1-2.5v-0.4l0-0.1c0-1.2,0.1-2.4,0.3-3.6h0c0,0,0.1-1,0.6-2.2c0.5-1.4,1.4-3.1,3-4c0,0,0.1,0,0.1,0l0,0
		c0,0,4.6-2.4,6.8-0.9c0.7,0.4,1.2,0.9,1.7,1.5l0.2,0.2c0.2,0.2,0.4,0.5,0.6,0.8l0,0c0.8,1,1.7,2.4,2.6,4.2
		c4.6,8.5,13.2,15.8,14.4,16.7c8,6.1,16.8,11.1,26.1,14.9c-8,16.5-25.1,35.8-43.3,53.7l-1.4,1.4l-0.2,0.2l-0.1,0.1
		c-16.8,16.4-34.3,31.6-47,41.5c-2.8,2.2-5.4,4.5-7.8,7.1l0,0c-0.6-1.1-1-2.2-1.3-3.3c-1-3.5-0.9-7.2-0.1-11
		c0.3-1.4,0.6-2.3,0.6-2.3h0c5.1-17.2,23.4-38.7,22.7-73.9c-4.4,34-34.7,67.6-37.6,85.7c-1,6.2-0.8,11.3,0.5,15.5l0.1,0.2
		c0.4,1.2,0.8,2.3,1.4,3.3l0.1,0.2l0.1,0.3c1,1.8,2.2,3.3,3.5,4.5c1.6,1.5,3.2,2.6,4.7,3.3l0.1,0c0.8,0.4,1.5,0.7,2.2,1l0,0
		c0.6,0.2,1.2,0.4,1.8,0.6l0.1,0l0.1,0h0l0.2,0c0-0.3,1-7.2,7.1-14.9c2.4-3,5.1-5.7,8.1-8c2.8-2.1,13.3-10.4,26.5-22
		c6.6-5.8,13.1-11.8,19.5-17.9l97.2,194.4L464.7,535.3L464.7,535.3z M262.3,378.4c-0.9,2.7-2.6,4.7-4.4,5.5
		c-0.9,0.4-1.9,0.5-2.8,0.3c-2.7-0.9-3.8-4.8-2.6-8.9c0.1-0.4,0.3-0.8,0.5-1.2c1.5-3.4,4.3-5.4,6.7-4.6
		C262.4,370.3,263.6,374.3,262.3,378.4z M320.7,338.2c-2.3,0-4.3-1.7-4.6-4.1c0-0.2-0.1-0.4-0.1-0.6v0c0-2.6,2.1-4.6,4.6-4.6
		c2.6,0,4.6,2.1,4.6,4.6C325.3,336.1,323.2,338.2,320.7,338.2z"/>
	<path class="st1" d="M365.9,509.4h-0.5v5.6h0.6c1.6,0,3.2-0.3,4.1-1.2v21.5h5.8v-30.1h-4.7C370.4,507.9,368.4,509.4,365.9,509.4
		 M416.3,505.3h-15.7v4.9h10c-4.1,6.7-6.5,14.6-6.6,23.6v1.6h6v-3.6c0-8.3,1.9-16.1,6.2-22.4V505.3L416.3,505.3z M393.9,519.2
		c2.4-1.3,3.4-2.9,3.4-5.5v-1.9c0-4.5-3.1-7.2-8-7.2c-4.9,0-8.1,2.9-8.1,7.4v1.7c0,3.3,1.3,5.2,3.7,6.5c-2.6,1-4.1,3.1-4.1,5.8v2.1
		c0,5,3.2,7.9,8.6,7.9c5.2,0,8.5-3.1,8.5-8v-2C397.9,522.5,396.6,520.5,393.9,519.2L393.9,519.2z M386.8,511.7
		c0-2.1,0.8-3.1,2.4-3.1s2.4,1,2.4,3.1v2.5c0,1.6-0.5,2.6-1.6,3.3l-0.5-0.2c-1.8-0.7-2.7-1.6-2.7-3.3L386.8,511.7L386.8,511.7z
		 M392,528.4c0,2.2-0.9,3.2-2.6,3.2c-1.8,0-2.7-1.1-2.7-3.3v-2.9c0-1.9,0.5-2.9,1.9-3.6l0.5,0.2c2.1,0.8,2.9,1.6,2.9,3.6L392,528.4
		L392,528.4z M431,505.3h-6.9l-8.2,19.2v4.3h9.4v6.6h5.7v-6.6h3.1v-4.5H431V505.3z M425.4,515.3v8.9h-4.9c0.4-0.6,0.7-1.3,1.2-2.4
		l2.6-6.6c0.6-1.4,0.9-2.4,1.2-3.6h0.1C425.4,512.7,425.4,514,425.4,515.3L425.4,515.3z"/>
</g>
</svg>
